<?xml version="1.0" encoding="UTF-8" standalone="no"?><!DOCTYPE svg PUBLIC "-//W3C//DTD SVG 1.1//EN" "http://www.w3.org/Graphics/SVG/1.1/DTD/svg11.dtd"><svg width="100%" height="100%" viewBox="0 0 24 24" version="1.1" xmlns="http://www.w3.org/2000/svg" xmlns:xlink="http://www.w3.org/1999/xlink" xml:space="preserve" xmlns:serif="http://www.serif.com/" style="fill-rule:evenodd;clip-rule:evenodd;stroke-linejoin:round;stroke-miterlimit:1.41421;"><rect x="0" y="0" width="24" height="24" style="fill:none;"/><path d="M18.3,5.71c-0.39,-0.39 -1.02,-0.39 -1.41,0l-4.89,4.88l-4.89,-4.89c-0.39,-0.39 -1.02,-0.39 -1.41,0c-0.39,0.39 -0.39,1.02 0,1.41l4.89,4.89l-4.89,4.89c-0.39,0.39 -0.39,1.02 0,1.41c0.39,0.39 1.02,0.39 1.41,0l4.89,-4.89l4.89,4.89c0.39,0.39 1.02,0.39 1.41,0c0.39,-0.39 0.39,-1.02 0,-1.41l-4.89,-4.89l4.89,-4.89c0.38,-0.38 0.38,-1.02 0,-1.4Z" style="fill:#fff;fill-rule:nonzero;"/></svg>