<?xml version="1.0" encoding="UTF-8" standalone="no"?><!DOCTYPE svg PUBLIC "-//W3C//DTD SVG 1.1//EN" "http://www.w3.org/Graphics/SVG/1.1/DTD/svg11.dtd"><svg width="100%" height="100%" viewBox="0 0 170 170" version="1.1" xmlns="http://www.w3.org/2000/svg" xmlns:xlink="http://www.w3.org/1999/xlink" xml:space="preserve" xmlns:serif="http://www.serif.com/" style="fill-rule:evenodd;clip-rule:evenodd;stroke-linejoin:round;stroke-miterlimit:1.41421;"><g id="NEW"><g id="Icon-Mono-White" serif:id="Icon Mono White"><path d="M36.313,104.055c0,-8.075 3.14,-15.552 8.823,-21.235l37.609,-37.459c11.739,-11.664 30.805,-11.664 42.469,0.075c5.607,5.682 8.673,13.234 8.673,21.309c0,8 -3.14,15.552 -8.823,21.235l-37.534,37.384c-5.682,5.608 -13.234,8.748 -21.234,8.748c-8.076,0 -15.552,-3.14 -21.235,-8.823c-5.682,-5.607 -8.748,-13.159 -8.748,-21.234Zm89.274,-37.31c0,-5.832 -2.243,-11.29 -6.28,-15.328c-8.449,-8.448 -22.207,-8.523 -30.73,-0.074l-37.609,37.459c-8.15,8.15 -8.225,22.506 -0.075,30.73c4.038,4.112 9.496,6.355 15.328,6.355c5.832,0 11.29,-2.243 15.327,-6.28l37.609,-37.459c4.113,-4.188 6.43,-9.646 6.43,-15.403Z" style="fill:#fff;fill-rule:nonzero;"/><path d="M36.388,66.596c0,-8.076 3.14,-15.552 8.823,-21.235c11.738,-11.664 30.805,-11.664 42.469,0.075l37.459,37.609c5.608,5.682 8.748,13.234 8.748,21.234c0,8.075 -3.14,15.552 -8.823,21.235c-5.682,5.607 -13.234,8.748 -21.234,8.748c-8.075,0 -15.552,-3.141 -21.235,-8.823l-37.459,-37.609c-5.683,-5.682 -8.748,-13.234 -8.748,-21.234Zm89.125,37.608c0,-5.832 -2.243,-11.29 -6.281,-15.327l-37.459,-37.609c-8.449,-8.449 -22.207,-8.449 -30.73,0c-4.113,4.037 -6.356,9.496 -6.356,15.328c0,5.832 2.243,11.29 6.281,15.327l37.459,37.609c4.113,4.112 9.496,6.355 15.328,6.355c5.832,0 11.29,-2.243 15.328,-6.28c4.187,-4.112 6.43,-9.571 6.43,-15.403Z" style="fill:#fff;fill-rule:nonzero;"/><path d="M0.05,85.288c0.075,-46.955 38.282,-85.013 85.162,-84.938c46.88,0.075 85.013,38.282 84.938,85.162c-0.075,46.88 -38.282,85.013 -85.162,84.938c-46.88,-0.075 -85.013,-38.282 -84.938,-85.162Zm161.801,0.224c0.074,-42.319 -34.32,-76.788 -76.639,-76.863c-42.319,-0.074 -76.788,34.32 -76.863,76.639c-0.074,42.319 34.32,76.788 76.639,76.863c42.319,0.074 76.788,-34.32 76.863,-76.639Z" style="fill:#fff;fill-rule:nonzero;"/></g></g></svg>